<mxfile host="app.diagrams.net" modified="2023-06-21T07:19:04.080Z" agent="Mozilla/5.0 (Windows NT 10.0; Win64; x64) AppleWebKit/537.36 (KHTML, like Gecko) Chrome/114.0.0.0 Safari/537.36" etag="WeyZj_SyZf1JGWSrzQ61" version="21.5.0" type="device">
  <diagram name="페이지-1" id="e6DhQ9FwdJhyGOgcDlPQ">
    <mxGraphModel dx="2338" dy="2480" grid="1" gridSize="10" guides="1" tooltips="1" connect="1" arrows="1" fold="1" page="1" pageScale="1" pageWidth="827" pageHeight="1169" background="#000000" math="0" shadow="0">
      <root>
        <mxCell id="0" />
        <mxCell id="1" parent="0" />
        <mxCell id="ZrR6Dw8ZqvK2Q1iNW7DY-1" value="&lt;font style=&quot;font-size: 30px;&quot;&gt;STORE&lt;/font&gt;" style="swimlane;fontStyle=0;childLayout=stackLayout;horizontal=1;startSize=60;horizontalStack=0;resizeParent=1;resizeParentMax=0;resizeLast=0;collapsible=1;marginBottom=0;whiteSpace=wrap;html=1;strokeWidth=4;rounded=1;labelBackgroundColor=none;" parent="1" vertex="1">
          <mxGeometry x="30" y="-640" width="300" height="350" as="geometry" />
        </mxCell>
        <mxCell id="ZrR6Dw8ZqvK2Q1iNW7DY-2" value="&lt;font style=&quot;font-size: 25px;&quot;&gt;ITEM_ID(CHAR)&amp;nbsp; &lt;font style=&quot;font-size: 25px;&quot; color=&quot;#ff0000&quot;&gt;PK&lt;/font&gt;&lt;/font&gt;" style="text;strokeColor=none;fillColor=none;align=center;verticalAlign=middle;spacingLeft=4;spacingRight=4;overflow=hidden;points=[[0,0.5],[1,0.5]];portConstraint=eastwest;rotatable=0;whiteSpace=wrap;html=1;rounded=1;labelBackgroundColor=none;fontSize=25;" parent="ZrR6Dw8ZqvK2Q1iNW7DY-1" vertex="1">
          <mxGeometry y="60" width="300" height="80" as="geometry" />
        </mxCell>
        <mxCell id="ZrR6Dw8ZqvK2Q1iNW7DY-3" value="&lt;font style=&quot;font-size: 25px;&quot;&gt;PRICE(NUMBER)&lt;/font&gt;" style="text;strokeColor=none;fillColor=none;align=center;verticalAlign=middle;spacingLeft=4;spacingRight=4;overflow=hidden;points=[[0,0.5],[1,0.5]];portConstraint=eastwest;rotatable=0;whiteSpace=wrap;html=1;rounded=1;labelBackgroundColor=none;" parent="ZrR6Dw8ZqvK2Q1iNW7DY-1" vertex="1">
          <mxGeometry y="140" width="300" height="100" as="geometry" />
        </mxCell>
        <mxCell id="ZrR6Dw8ZqvK2Q1iNW7DY-4" value="&lt;font style=&quot;font-size: 25px;&quot;&gt;INFO(VARCHAR2)&lt;/font&gt;" style="text;strokeColor=none;fillColor=none;align=center;verticalAlign=middle;spacingLeft=4;spacingRight=4;overflow=hidden;points=[[0,0.5],[1,0.5]];portConstraint=eastwest;rotatable=0;whiteSpace=wrap;html=1;rounded=1;labelBackgroundColor=none;" parent="ZrR6Dw8ZqvK2Q1iNW7DY-1" vertex="1">
          <mxGeometry y="240" width="300" height="110" as="geometry" />
        </mxCell>
        <mxCell id="ZrR6Dw8ZqvK2Q1iNW7DY-7" value="&lt;font style=&quot;font-size: 30px;&quot;&gt;STORE_LOG&lt;/font&gt;" style="swimlane;fontStyle=0;childLayout=stackLayout;horizontal=1;startSize=60;horizontalStack=0;resizeParent=1;resizeParentMax=0;resizeLast=0;collapsible=1;marginBottom=0;whiteSpace=wrap;html=1;strokeWidth=4;rounded=1;labelBackgroundColor=none;" parent="1" vertex="1">
          <mxGeometry x="527" y="-720" width="300" height="570" as="geometry" />
        </mxCell>
        <mxCell id="ZrR6Dw8ZqvK2Q1iNW7DY-8" value="&lt;span style=&quot;font-size: 25px;&quot;&gt;PLAYER_ID(CHAR) &lt;font style=&quot;font-size: 25px;&quot; color=&quot;#ffff00&quot;&gt;FK&lt;/font&gt;&lt;/span&gt;" style="text;strokeColor=none;fillColor=none;align=center;verticalAlign=middle;spacingLeft=4;spacingRight=4;overflow=hidden;points=[[0,0.5],[1,0.5]];portConstraint=eastwest;rotatable=0;whiteSpace=wrap;html=1;rounded=1;labelBackgroundColor=none;" parent="ZrR6Dw8ZqvK2Q1iNW7DY-7" vertex="1">
          <mxGeometry y="60" width="300" height="80" as="geometry" />
        </mxCell>
        <mxCell id="ZrR6Dw8ZqvK2Q1iNW7DY-9" value="&lt;span style=&quot;font-size: 25px;&quot;&gt;ITEM_ID(VARCHAR2) &lt;font style=&quot;font-size: 25px;&quot; color=&quot;#ffff00&quot;&gt;FK&lt;/font&gt;&lt;/span&gt;" style="text;strokeColor=none;fillColor=none;align=center;verticalAlign=middle;spacingLeft=4;spacingRight=4;overflow=hidden;points=[[0,0.5],[1,0.5]];portConstraint=eastwest;rotatable=0;whiteSpace=wrap;html=1;rounded=1;labelBackgroundColor=none;" parent="ZrR6Dw8ZqvK2Q1iNW7DY-7" vertex="1">
          <mxGeometry y="140" width="300" height="100" as="geometry" />
        </mxCell>
        <mxCell id="ZrR6Dw8ZqvK2Q1iNW7DY-10" value="&lt;font style=&quot;font-size: 25px;&quot;&gt;ITEM_CNT(NUMBER)&lt;/font&gt;" style="text;strokeColor=none;fillColor=none;align=center;verticalAlign=middle;spacingLeft=4;spacingRight=4;overflow=hidden;points=[[0,0.5],[1,0.5]];portConstraint=eastwest;rotatable=0;whiteSpace=wrap;html=1;rounded=1;labelBackgroundColor=none;" parent="ZrR6Dw8ZqvK2Q1iNW7DY-7" vertex="1">
          <mxGeometry y="240" width="300" height="110" as="geometry" />
        </mxCell>
        <mxCell id="ZrR6Dw8ZqvK2Q1iNW7DY-17" value="&lt;font style=&quot;font-size: 25px;&quot;&gt;PRICE(NUMBER)&lt;/font&gt;" style="text;strokeColor=none;fillColor=none;align=center;verticalAlign=middle;spacingLeft=4;spacingRight=4;overflow=hidden;points=[[0,0.5],[1,0.5]];portConstraint=eastwest;rotatable=0;whiteSpace=wrap;html=1;rounded=1;labelBackgroundColor=none;" parent="ZrR6Dw8ZqvK2Q1iNW7DY-7" vertex="1">
          <mxGeometry y="350" width="300" height="110" as="geometry" />
        </mxCell>
        <mxCell id="ZrR6Dw8ZqvK2Q1iNW7DY-11" value="&lt;font style=&quot;font-size: 25px;&quot;&gt;STORE_DATE(DATE)&lt;/font&gt;" style="text;strokeColor=none;fillColor=none;align=center;verticalAlign=middle;spacingLeft=4;spacingRight=4;overflow=hidden;points=[[0,0.5],[1,0.5]];portConstraint=eastwest;rotatable=0;whiteSpace=wrap;html=1;strokeWidth=1;rounded=1;labelBackgroundColor=none;" parent="ZrR6Dw8ZqvK2Q1iNW7DY-7" vertex="1">
          <mxGeometry y="460" width="300" height="110" as="geometry" />
        </mxCell>
        <mxCell id="ZrR6Dw8ZqvK2Q1iNW7DY-12" value="&lt;font style=&quot;font-size: 30px;&quot;&gt;PLAYER&lt;/font&gt;" style="swimlane;fontStyle=0;childLayout=stackLayout;horizontal=1;startSize=60;horizontalStack=0;resizeParent=1;resizeParentMax=0;resizeLast=0;collapsible=1;marginBottom=0;whiteSpace=wrap;html=1;strokeWidth=4;rounded=1;labelBackgroundColor=none;gradientColor=none;swimlaneFillColor=none;fillColor=default;" parent="1" vertex="1">
          <mxGeometry x="987" y="-718" width="300" height="570" as="geometry" />
        </mxCell>
        <mxCell id="ZrR6Dw8ZqvK2Q1iNW7DY-13" value="&lt;font style=&quot;font-size: 25px;&quot;&gt;PLAYER_ID(CHAR) &lt;font style=&quot;font-size: 25px;&quot; color=&quot;#ff0000&quot;&gt;PK&lt;/font&gt;&lt;/font&gt;" style="text;strokeColor=none;fillColor=none;align=center;verticalAlign=middle;spacingLeft=4;spacingRight=4;overflow=hidden;points=[[0,0.5],[1,0.5]];portConstraint=eastwest;rotatable=0;whiteSpace=wrap;html=1;rounded=1;labelBackgroundColor=none;" parent="ZrR6Dw8ZqvK2Q1iNW7DY-12" vertex="1">
          <mxGeometry y="60" width="300" height="80" as="geometry" />
        </mxCell>
        <mxCell id="ZrR6Dw8ZqvK2Q1iNW7DY-14" value="&lt;font style=&quot;font-size: 25px;&quot;&gt;PW1(VARCHAR2)&lt;/font&gt;" style="text;strokeColor=none;fillColor=none;align=center;verticalAlign=middle;spacingLeft=4;spacingRight=4;overflow=hidden;points=[[0,0.5],[1,0.5]];portConstraint=eastwest;rotatable=0;whiteSpace=wrap;html=1;rounded=1;labelBackgroundColor=none;" parent="ZrR6Dw8ZqvK2Q1iNW7DY-12" vertex="1">
          <mxGeometry y="140" width="300" height="100" as="geometry" />
        </mxCell>
        <mxCell id="ZrR6Dw8ZqvK2Q1iNW7DY-15" value="&lt;font style=&quot;font-size: 25px;&quot;&gt;PW2(NUMBER)&lt;/font&gt;" style="text;strokeColor=none;fillColor=none;align=center;verticalAlign=middle;spacingLeft=4;spacingRight=4;overflow=hidden;points=[[0,0.5],[1,0.5]];portConstraint=eastwest;rotatable=0;whiteSpace=wrap;html=1;rounded=1;labelBackgroundColor=none;" parent="ZrR6Dw8ZqvK2Q1iNW7DY-12" vertex="1">
          <mxGeometry y="240" width="300" height="110" as="geometry" />
        </mxCell>
        <mxCell id="ZrR6Dw8ZqvK2Q1iNW7DY-16" value="&lt;font style=&quot;font-size: 25px;&quot;&gt;POINT(NUMBER)&lt;/font&gt;" style="text;strokeColor=none;fillColor=none;align=center;verticalAlign=middle;spacingLeft=4;spacingRight=4;overflow=hidden;points=[[0,0.5],[1,0.5]];portConstraint=eastwest;rotatable=0;whiteSpace=wrap;html=1;strokeWidth=1;rounded=1;labelBackgroundColor=none;" parent="ZrR6Dw8ZqvK2Q1iNW7DY-12" vertex="1">
          <mxGeometry y="350" width="300" height="110" as="geometry" />
        </mxCell>
        <mxCell id="ZrR6Dw8ZqvK2Q1iNW7DY-18" value="&lt;font style=&quot;font-size: 25px;&quot;&gt;RANKING(NUMBER)&lt;/font&gt;" style="text;strokeColor=none;fillColor=none;align=center;verticalAlign=middle;spacingLeft=4;spacingRight=4;overflow=hidden;points=[[0,0.5],[1,0.5]];portConstraint=eastwest;rotatable=0;whiteSpace=wrap;html=1;strokeWidth=1;rounded=1;labelBackgroundColor=none;" parent="ZrR6Dw8ZqvK2Q1iNW7DY-12" vertex="1">
          <mxGeometry y="460" width="300" height="110" as="geometry" />
        </mxCell>
        <mxCell id="ZrR6Dw8ZqvK2Q1iNW7DY-19" value="&lt;font style=&quot;font-size: 30px;&quot;&gt;QUESTION&lt;/font&gt;" style="swimlane;fontStyle=0;childLayout=stackLayout;horizontal=1;startSize=60;horizontalStack=0;resizeParent=1;resizeParentMax=0;resizeLast=0;collapsible=1;marginBottom=0;whiteSpace=wrap;html=1;strokeWidth=4;rounded=1;labelBackgroundColor=none;" parent="1" vertex="1">
          <mxGeometry x="1953" y="-710" width="340" height="570" as="geometry" />
        </mxCell>
        <mxCell id="ZrR6Dw8ZqvK2Q1iNW7DY-20" value="&lt;span style=&quot;font-size: 25px;&quot;&gt;&lt;br&gt;QUESTION_NUMBER(NUM)&amp;nbsp; &lt;font color=&quot;#ff0000&quot; style=&quot;font-size: 25px;&quot;&gt;PK&lt;/font&gt;&lt;/span&gt;" style="text;strokeColor=none;fillColor=none;align=center;verticalAlign=middle;spacingLeft=4;spacingRight=4;overflow=hidden;points=[[0,0.5],[1,0.5]];portConstraint=eastwest;rotatable=0;whiteSpace=wrap;html=1;rounded=1;labelBackgroundColor=none;fontSize=25;" parent="ZrR6Dw8ZqvK2Q1iNW7DY-19" vertex="1">
          <mxGeometry y="60" width="340" height="100" as="geometry" />
        </mxCell>
        <mxCell id="ZrR6Dw8ZqvK2Q1iNW7DY-21" value="&lt;span style=&quot;font-size: 25px;&quot;&gt;TITLE(VARCHAR2)&lt;/span&gt;" style="text;strokeColor=none;fillColor=none;align=center;verticalAlign=middle;spacingLeft=4;spacingRight=4;overflow=hidden;points=[[0,0.5],[1,0.5]];portConstraint=eastwest;rotatable=0;whiteSpace=wrap;html=1;rounded=1;labelBackgroundColor=none;fontSize=25;" parent="ZrR6Dw8ZqvK2Q1iNW7DY-19" vertex="1">
          <mxGeometry y="160" width="340" height="80" as="geometry" />
        </mxCell>
        <mxCell id="ZrR6Dw8ZqvK2Q1iNW7DY-22" value="&lt;span style=&quot;font-size: 25px;&quot;&gt;ANSWER(VARCHAR2)&lt;/span&gt;" style="text;strokeColor=none;fillColor=none;align=center;verticalAlign=middle;spacingLeft=4;spacingRight=4;overflow=hidden;points=[[0,0.5],[1,0.5]];portConstraint=eastwest;rotatable=0;whiteSpace=wrap;html=1;rounded=1;labelBackgroundColor=none;fontSize=25;" parent="ZrR6Dw8ZqvK2Q1iNW7DY-19" vertex="1">
          <mxGeometry y="240" width="340" height="110" as="geometry" />
        </mxCell>
        <mxCell id="ZrR6Dw8ZqvK2Q1iNW7DY-23" value="&lt;span style=&quot;font-size: 25px;&quot;&gt;PATH(VARCHAR2)&lt;/span&gt;" style="text;strokeColor=none;fillColor=none;align=center;verticalAlign=middle;spacingLeft=4;spacingRight=4;overflow=hidden;points=[[0,0.5],[1,0.5]];portConstraint=eastwest;rotatable=0;whiteSpace=wrap;html=1;strokeWidth=1;rounded=1;labelBackgroundColor=none;fontSize=25;" parent="ZrR6Dw8ZqvK2Q1iNW7DY-19" vertex="1">
          <mxGeometry y="350" width="340" height="110" as="geometry" />
        </mxCell>
        <mxCell id="ZrR6Dw8ZqvK2Q1iNW7DY-24" value="&lt;span style=&quot;font-size: 25px;&quot;&gt;GENRE(VARCHAR2)&lt;/span&gt;" style="text;strokeColor=none;fillColor=none;align=center;verticalAlign=middle;spacingLeft=4;spacingRight=4;overflow=hidden;points=[[0,0.5],[1,0.5]];portConstraint=eastwest;rotatable=0;whiteSpace=wrap;html=1;strokeWidth=1;rounded=1;labelBackgroundColor=none;fontSize=25;" parent="ZrR6Dw8ZqvK2Q1iNW7DY-19" vertex="1">
          <mxGeometry y="460" width="340" height="110" as="geometry" />
        </mxCell>
        <mxCell id="ZrR6Dw8ZqvK2Q1iNW7DY-25" value="&lt;font style=&quot;font-size: 30px;&quot;&gt;PLAYER_QUESTION&lt;/font&gt;" style="swimlane;fontStyle=0;childLayout=stackLayout;horizontal=1;startSize=60;horizontalStack=0;resizeParent=1;resizeParentMax=0;resizeLast=0;collapsible=1;marginBottom=0;whiteSpace=wrap;html=1;strokeWidth=4;rounded=1;labelBackgroundColor=none;" parent="1" vertex="1">
          <mxGeometry x="1442" y="-682" width="340" height="460" as="geometry" />
        </mxCell>
        <mxCell id="ZrR6Dw8ZqvK2Q1iNW7DY-26" value="&lt;span style=&quot;font-size: 25px;&quot;&gt;&lt;br&gt;QUESTION_NUMBER(NUM) &lt;font style=&quot;font-size: 25px;&quot; color=&quot;#ffff00&quot;&gt;FK&lt;/font&gt;&lt;/span&gt;" style="text;strokeColor=none;fillColor=none;align=center;verticalAlign=middle;spacingLeft=4;spacingRight=4;overflow=hidden;points=[[0,0.5],[1,0.5]];portConstraint=eastwest;rotatable=0;whiteSpace=wrap;html=1;rounded=1;labelBackgroundColor=none;" parent="ZrR6Dw8ZqvK2Q1iNW7DY-25" vertex="1">
          <mxGeometry y="60" width="340" height="90" as="geometry" />
        </mxCell>
        <mxCell id="ZrR6Dw8ZqvK2Q1iNW7DY-27" value="&lt;span style=&quot;font-size: 25px;&quot;&gt;PLAYER_ID(VARCHAR2) &lt;font style=&quot;font-size: 25px;&quot; color=&quot;#ffff00&quot;&gt;FK&lt;/font&gt;&lt;/span&gt;" style="text;strokeColor=none;fillColor=none;align=center;verticalAlign=middle;spacingLeft=4;spacingRight=4;overflow=hidden;points=[[0,0.5],[1,0.5]];portConstraint=eastwest;rotatable=0;whiteSpace=wrap;html=1;rounded=1;labelBackgroundColor=none;" parent="ZrR6Dw8ZqvK2Q1iNW7DY-25" vertex="1">
          <mxGeometry y="150" width="340" height="90" as="geometry" />
        </mxCell>
        <mxCell id="ZrR6Dw8ZqvK2Q1iNW7DY-28" value="&lt;font style=&quot;font-size: 25px;&quot;&gt;Q_SOLVE(VARCHAR2)&lt;/font&gt;" style="text;strokeColor=none;fillColor=none;align=center;verticalAlign=middle;spacingLeft=4;spacingRight=4;overflow=hidden;points=[[0,0.5],[1,0.5]];portConstraint=eastwest;rotatable=0;whiteSpace=wrap;html=1;rounded=1;labelBackgroundColor=none;" parent="ZrR6Dw8ZqvK2Q1iNW7DY-25" vertex="1">
          <mxGeometry y="240" width="340" height="110" as="geometry" />
        </mxCell>
        <mxCell id="ZrR6Dw8ZqvK2Q1iNW7DY-29" value="&lt;font style=&quot;font-size: 25px;&quot;&gt;REG_DATE(DATE)&lt;/font&gt;" style="text;strokeColor=none;fillColor=none;align=center;verticalAlign=middle;spacingLeft=4;spacingRight=4;overflow=hidden;points=[[0,0.5],[1,0.5]];portConstraint=eastwest;rotatable=0;whiteSpace=wrap;html=1;strokeWidth=1;rounded=1;labelBackgroundColor=none;" parent="ZrR6Dw8ZqvK2Q1iNW7DY-25" vertex="1">
          <mxGeometry y="350" width="340" height="110" as="geometry" />
        </mxCell>
        <mxCell id="qR0Otl9TiRT01mDbzxcP-6" value="" style="endArrow=none;html=1;rounded=0;entryX=0;entryY=0.273;entryDx=0;entryDy=0;entryPerimeter=0;strokeWidth=3;" edge="1" parent="1" source="qR0Otl9TiRT01mDbzxcP-29" target="ZrR6Dw8ZqvK2Q1iNW7DY-10">
          <mxGeometry relative="1" as="geometry">
            <mxPoint x="330" y="-450" as="sourcePoint" />
            <mxPoint x="470" y="-450" as="targetPoint" />
          </mxGeometry>
        </mxCell>
        <mxCell id="qR0Otl9TiRT01mDbzxcP-8" value="" style="endArrow=none;html=1;rounded=0;strokeWidth=3;" edge="1" parent="1">
          <mxGeometry relative="1" as="geometry">
            <mxPoint x="487" y="-450" as="sourcePoint" />
            <mxPoint x="527" y="-420" as="targetPoint" />
          </mxGeometry>
        </mxCell>
        <mxCell id="qR0Otl9TiRT01mDbzxcP-9" value="" style="endArrow=none;html=1;rounded=0;strokeWidth=3;" edge="1" parent="1">
          <mxGeometry relative="1" as="geometry">
            <mxPoint x="350" y="-424" as="sourcePoint" />
            <mxPoint x="350" y="-474" as="targetPoint" />
          </mxGeometry>
        </mxCell>
        <mxCell id="qR0Otl9TiRT01mDbzxcP-10" value="" style="endArrow=none;html=1;rounded=0;strokeWidth=3;" edge="1" parent="1">
          <mxGeometry relative="1" as="geometry">
            <mxPoint x="488" y="-476" as="sourcePoint" />
            <mxPoint x="488" y="-426" as="targetPoint" />
          </mxGeometry>
        </mxCell>
        <mxCell id="qR0Otl9TiRT01mDbzxcP-11" value="" style="endArrow=none;html=1;rounded=0;strokeWidth=2;" edge="1" parent="1" source="qR0Otl9TiRT01mDbzxcP-17">
          <mxGeometry relative="1" as="geometry">
            <mxPoint x="940" y="-450" as="sourcePoint" />
            <mxPoint x="983" y="-450" as="targetPoint" />
          </mxGeometry>
        </mxCell>
        <mxCell id="qR0Otl9TiRT01mDbzxcP-12" value="" style="endArrow=none;html=1;rounded=0;exitX=1;exitY=0.93;exitDx=0;exitDy=0;exitPerimeter=0;strokeWidth=2;" edge="1" parent="1" source="ZrR6Dw8ZqvK2Q1iNW7DY-9">
          <mxGeometry relative="1" as="geometry">
            <mxPoint x="820" y="-495" as="sourcePoint" />
            <mxPoint x="870" y="-450" as="targetPoint" />
          </mxGeometry>
        </mxCell>
        <mxCell id="qR0Otl9TiRT01mDbzxcP-13" value="" style="endArrow=none;html=1;rounded=0;exitX=1.013;exitY=0.609;exitDx=0;exitDy=0;exitPerimeter=0;strokeWidth=2;" edge="1" parent="1" source="ZrR6Dw8ZqvK2Q1iNW7DY-10">
          <mxGeometry relative="1" as="geometry">
            <mxPoint x="840" y="-400" as="sourcePoint" />
            <mxPoint x="870" y="-450" as="targetPoint" />
          </mxGeometry>
        </mxCell>
        <mxCell id="qR0Otl9TiRT01mDbzxcP-14" value="" style="endArrow=none;html=1;rounded=0;strokeWidth=3;" edge="1" parent="1">
          <mxGeometry relative="1" as="geometry">
            <mxPoint x="968" y="-470" as="sourcePoint" />
            <mxPoint x="968" y="-430" as="targetPoint" />
          </mxGeometry>
        </mxCell>
        <mxCell id="qR0Otl9TiRT01mDbzxcP-16" value="" style="endArrow=none;html=1;rounded=0;strokeWidth=2;" edge="1" parent="1">
          <mxGeometry relative="1" as="geometry">
            <mxPoint x="826" y="-450" as="sourcePoint" />
            <mxPoint x="943" y="-450" as="targetPoint" />
          </mxGeometry>
        </mxCell>
        <mxCell id="qR0Otl9TiRT01mDbzxcP-19" value="" style="endArrow=none;html=1;rounded=0;strokeWidth=2;" edge="1" parent="1" target="qR0Otl9TiRT01mDbzxcP-17">
          <mxGeometry relative="1" as="geometry">
            <mxPoint x="940" y="-450" as="sourcePoint" />
            <mxPoint x="983" y="-450" as="targetPoint" />
          </mxGeometry>
        </mxCell>
        <mxCell id="qR0Otl9TiRT01mDbzxcP-17" value="" style="shape=waypoint;sketch=0;fillStyle=solid;size=6;pointerEvents=1;points=[];fillColor=none;resizable=0;rotatable=0;perimeter=centerPerimeter;snapToPoint=1;strokeWidth=7;" vertex="1" parent="1">
          <mxGeometry x="936" y="-460" width="20" height="20" as="geometry" />
        </mxCell>
        <mxCell id="qR0Otl9TiRT01mDbzxcP-20" value="" style="endArrow=none;html=1;rounded=0;strokeWidth=3;" edge="1" parent="1">
          <mxGeometry relative="1" as="geometry">
            <mxPoint x="490" y="-450.5" as="sourcePoint" />
            <mxPoint x="530" y="-479.5" as="targetPoint" />
            <Array as="points" />
          </mxGeometry>
        </mxCell>
        <mxCell id="qR0Otl9TiRT01mDbzxcP-21" value="" style="endArrow=none;html=1;rounded=0;strokeWidth=3;" edge="1" parent="1" source="qR0Otl9TiRT01mDbzxcP-22">
          <mxGeometry relative="1" as="geometry">
            <mxPoint x="1290" y="-450.34" as="sourcePoint" />
            <mxPoint x="1443" y="-450.66999999999996" as="targetPoint" />
          </mxGeometry>
        </mxCell>
        <mxCell id="qR0Otl9TiRT01mDbzxcP-23" value="" style="endArrow=none;html=1;rounded=0;strokeWidth=3;" edge="1" parent="1" target="qR0Otl9TiRT01mDbzxcP-22">
          <mxGeometry relative="1" as="geometry">
            <mxPoint x="1290" y="-450.34" as="sourcePoint" />
            <mxPoint x="1443" y="-450.66999999999996" as="targetPoint" />
          </mxGeometry>
        </mxCell>
        <mxCell id="qR0Otl9TiRT01mDbzxcP-22" value="" style="shape=waypoint;sketch=0;fillStyle=solid;size=6;pointerEvents=1;points=[];fillColor=none;resizable=0;rotatable=0;perimeter=centerPerimeter;snapToPoint=1;strokeWidth=7;" vertex="1" parent="1">
          <mxGeometry x="1310" y="-460" width="20" height="20" as="geometry" />
        </mxCell>
        <mxCell id="qR0Otl9TiRT01mDbzxcP-24" value="" style="endArrow=none;html=1;rounded=0;strokeWidth=3;" edge="1" parent="1">
          <mxGeometry relative="1" as="geometry">
            <mxPoint x="1303" y="-468" as="sourcePoint" />
            <mxPoint x="1303" y="-428" as="targetPoint" />
          </mxGeometry>
        </mxCell>
        <mxCell id="qR0Otl9TiRT01mDbzxcP-25" value="" style="endArrow=none;html=1;rounded=0;strokeWidth=3;" edge="1" parent="1">
          <mxGeometry relative="1" as="geometry">
            <mxPoint x="1407" y="-475" as="sourcePoint" />
            <mxPoint x="1407" y="-425" as="targetPoint" />
          </mxGeometry>
        </mxCell>
        <mxCell id="qR0Otl9TiRT01mDbzxcP-26" value="" style="endArrow=none;html=1;rounded=0;strokeWidth=3;" edge="1" parent="1">
          <mxGeometry relative="1" as="geometry">
            <mxPoint x="1410" y="-450" as="sourcePoint" />
            <mxPoint x="1440" y="-430" as="targetPoint" />
          </mxGeometry>
        </mxCell>
        <mxCell id="qR0Otl9TiRT01mDbzxcP-28" value="" style="endArrow=none;html=1;rounded=0;strokeWidth=3;" edge="1" parent="1">
          <mxGeometry relative="1" as="geometry">
            <mxPoint x="1410" y="-450" as="sourcePoint" />
            <mxPoint x="1440" y="-470" as="targetPoint" />
          </mxGeometry>
        </mxCell>
        <mxCell id="qR0Otl9TiRT01mDbzxcP-30" value="" style="endArrow=none;html=1;rounded=0;entryDx=0;entryDy=0;entryPerimeter=0;strokeWidth=3;" edge="1" parent="1" target="qR0Otl9TiRT01mDbzxcP-29">
          <mxGeometry relative="1" as="geometry">
            <mxPoint x="330" y="-450" as="sourcePoint" />
            <mxPoint x="527" y="-450" as="targetPoint" />
          </mxGeometry>
        </mxCell>
        <mxCell id="qR0Otl9TiRT01mDbzxcP-29" value="" style="shape=waypoint;sketch=0;fillStyle=solid;size=6;pointerEvents=1;points=[];fillColor=none;resizable=0;rotatable=0;perimeter=centerPerimeter;snapToPoint=1;strokeWidth=7;" vertex="1" parent="1">
          <mxGeometry x="365" y="-460" width="20" height="20" as="geometry" />
        </mxCell>
        <mxCell id="qR0Otl9TiRT01mDbzxcP-31" value="" style="endArrow=none;html=1;rounded=0;strokeWidth=3;entryX=0.003;entryY=0.17;entryDx=0;entryDy=0;entryPerimeter=0;" edge="1" parent="1" source="qR0Otl9TiRT01mDbzxcP-32" target="ZrR6Dw8ZqvK2Q1iNW7DY-22">
          <mxGeometry relative="1" as="geometry">
            <mxPoint x="1782" y="-450" as="sourcePoint" />
            <mxPoint x="1910" y="-451" as="targetPoint" />
          </mxGeometry>
        </mxCell>
        <mxCell id="qR0Otl9TiRT01mDbzxcP-33" value="" style="endArrow=none;html=1;rounded=0;strokeWidth=3;" edge="1" parent="1" target="qR0Otl9TiRT01mDbzxcP-32">
          <mxGeometry relative="1" as="geometry">
            <mxPoint x="1782" y="-450" as="sourcePoint" />
            <mxPoint x="1910" y="-451" as="targetPoint" />
          </mxGeometry>
        </mxCell>
        <mxCell id="qR0Otl9TiRT01mDbzxcP-32" value="" style="shape=waypoint;sketch=0;fillStyle=solid;size=6;pointerEvents=1;points=[];fillColor=none;resizable=0;rotatable=0;perimeter=centerPerimeter;snapToPoint=1;strokeWidth=7;" vertex="1" parent="1">
          <mxGeometry x="1898" y="-462" width="20" height="20" as="geometry" />
        </mxCell>
        <mxCell id="qR0Otl9TiRT01mDbzxcP-35" value="" style="endArrow=none;html=1;rounded=0;strokeWidth=4;" edge="1" parent="1">
          <mxGeometry relative="1" as="geometry">
            <mxPoint x="1932" y="-471" as="sourcePoint" />
            <mxPoint x="1932" y="-431" as="targetPoint" />
          </mxGeometry>
        </mxCell>
        <mxCell id="qR0Otl9TiRT01mDbzxcP-37" value="" style="endArrow=none;html=1;rounded=0;strokeWidth=3;exitX=0.997;exitY=0.64;exitDx=0;exitDy=0;exitPerimeter=0;" edge="1" parent="1" source="ZrR6Dw8ZqvK2Q1iNW7DY-27">
          <mxGeometry relative="1" as="geometry">
            <mxPoint x="1782" y="-470" as="sourcePoint" />
            <mxPoint x="1812" y="-450" as="targetPoint" />
          </mxGeometry>
        </mxCell>
        <mxCell id="qR0Otl9TiRT01mDbzxcP-38" value="" style="endArrow=none;html=1;rounded=0;strokeWidth=3;entryX=0.997;entryY=0.158;entryDx=0;entryDy=0;entryPerimeter=0;" edge="1" parent="1" target="ZrR6Dw8ZqvK2Q1iNW7DY-28">
          <mxGeometry relative="1" as="geometry">
            <mxPoint x="1810" y="-450" as="sourcePoint" />
            <mxPoint x="1840" y="-430" as="targetPoint" />
          </mxGeometry>
        </mxCell>
        <mxCell id="qR0Otl9TiRT01mDbzxcP-39" value="" style="endArrow=none;html=1;rounded=0;strokeWidth=3;" edge="1" parent="1">
          <mxGeometry relative="1" as="geometry">
            <mxPoint x="1811" y="-479" as="sourcePoint" />
            <mxPoint x="1811" y="-422" as="targetPoint" />
          </mxGeometry>
        </mxCell>
      </root>
    </mxGraphModel>
  </diagram>
</mxfile>
